<svg width="375" height="260" viewBox="0 0 375 260" fill="none" xmlns="http://www.w3.org/2000/svg">
<g filter="url(#filter0_dd_51_37)">
<path d="M43.3056 25.3218C43.3056 19.858 47.7578 15.4287 53.25 15.4287H323.171C328.663 15.4287 333.116 19.858 333.116 25.3218V204.811C333.116 205.592 332.479 206.225 331.695 206.225H44.7262C43.9416 206.225 43.3056 205.592 43.3056 204.811V25.3218Z" fill="#0F172A"/>
<path d="M45.0813 24.9685C45.0813 20.6755 48.5796 17.1953 52.8948 17.1953H323.525C327.841 17.1953 331.339 20.6755 331.339 24.9685V203.397H45.0813V24.9685Z" fill="black"/>
<rect width="270.276" height="168.889" transform="translate(52.5397 27.0884)" fill="#E0F2FE"/>
<path d="M52.5397 27.3135H97.812V195.977H52.5397V27.3135Z" fill="#BFDBFE"/>
<path d="M57.9724 43.3018C57.9724 41.8094 59.1885 40.5996 60.6887 40.5996H89.663C91.1632 40.5996 92.3794 41.8094 92.3794 43.3018C92.3794 44.7942 91.1632 46.0041 89.663 46.0041H60.6887C59.1885 46.0041 57.9724 44.7942 57.9724 43.3018Z" fill="#93C5FD"/>
<path d="M68.8377 62.2173C68.8377 61.4711 69.4458 60.8662 70.1959 60.8662H92.832C93.5821 60.8662 94.1902 61.4711 94.1902 62.2173C94.1902 62.9635 93.5821 63.5684 92.832 63.5684H70.1959C69.4458 63.5684 68.8377 62.9635 68.8377 62.2173Z" fill="white"/>
<path d="M68.8377 76.6292C68.8377 75.883 69.4458 75.2781 70.1959 75.2781H85.8148C86.5649 75.2781 87.173 75.883 87.173 76.6292C87.173 77.3754 86.5649 77.9803 85.8148 77.9803H70.1959C69.4458 77.9803 68.8377 77.3754 68.8377 76.6292Z" fill="white"/>
<path d="M68.8377 91.0413C68.8377 90.2951 69.4458 89.6902 70.1959 89.6902H89.663C90.4131 89.6902 91.0211 90.2951 91.0211 91.0413C91.0211 91.7875 90.4131 92.3924 89.663 92.3924H70.1959C69.4458 92.3924 68.8377 91.7875 68.8377 91.0413Z" fill="white"/>
<path fill-rule="evenodd" clip-rule="evenodd" d="M61.5942 65.1449C63.2194 65.1449 64.5369 63.8342 64.5369 62.2175C64.5369 60.6007 63.2194 59.2901 61.5942 59.2901C59.9689 59.2901 58.6515 60.6007 58.6515 62.2175C58.6515 63.8342 59.9689 65.1449 61.5942 65.1449ZM61.5942 65.8205C63.5944 65.8205 65.2159 64.2073 65.2159 62.2175C65.2159 60.2276 63.5944 58.6145 61.5942 58.6145C59.5939 58.6145 57.9724 60.2276 57.9724 62.2175C57.9724 64.2073 59.5939 65.8205 61.5942 65.8205Z" fill="#93C5FD"/>
<path d="M112.299 43.3017C112.299 42.3068 113.11 41.5002 114.11 41.5002H140.368C141.368 41.5002 142.179 42.3068 142.179 43.3017C142.179 44.2967 141.368 45.1032 140.368 45.1032H114.11C113.11 45.1032 112.299 44.2967 112.299 43.3017Z" fill="#BFDBFE"/>
<path fill-rule="evenodd" clip-rule="evenodd" d="M160.401 115.938C160.414 114.653 161.44 113.56 162.758 113.56C163.567 113.56 164.163 113.958 164.543 114.333C164.648 114.438 164.739 114.542 164.815 114.638C164.891 114.542 164.982 114.438 165.088 114.333C165.467 113.958 166.063 113.56 166.872 113.56C168.19 113.56 169.216 114.653 169.229 115.938V115.938C169.254 118.443 167.231 120.176 165.197 121.55C165.084 121.626 164.951 121.667 164.815 121.667C164.679 121.667 164.546 121.626 164.433 121.55C162.399 120.176 160.376 118.443 160.401 115.938L160.401 115.938ZM165.118 115.401C165.118 115.4 165.119 115.4 165.119 115.4C165.119 115.399 165.121 115.396 165.123 115.393C165.126 115.385 165.133 115.374 165.142 115.358C165.159 115.328 165.187 115.282 165.225 115.225C165.301 115.113 165.415 114.962 165.566 114.813C165.87 114.512 166.303 114.235 166.872 114.235C167.793 114.235 168.54 115.005 168.55 115.945C168.571 118.056 166.867 119.605 164.815 120.991L164.815 120.991L164.815 120.991C162.763 119.605 161.059 118.056 161.08 115.945" fill="white"/>
<path d="M112.299 117.613C112.299 116.618 113.11 115.812 114.11 115.812H126.334C127.334 115.812 128.144 116.618 128.144 117.613C128.144 118.608 127.334 119.415 126.334 119.415H114.11C113.11 119.415 112.299 118.608 112.299 117.613Z" fill="#BFDBFE"/>
<path d="M131.766 117.613C131.766 116.618 132.577 115.812 133.577 115.812H153.95C154.95 115.812 155.761 116.618 155.761 117.613C155.761 118.608 154.95 119.415 153.95 119.415H133.577C132.577 119.415 131.766 118.608 131.766 117.613Z" fill="#BFDBFE"/>
<path d="M112.299 135.178C112.299 134.432 112.907 133.827 113.657 133.827H132.672C133.422 133.827 134.03 134.432 134.03 135.178C134.03 135.924 133.422 136.529 132.672 136.529H113.657C112.907 136.529 112.299 135.924 112.299 135.178Z" fill="white"/>
<path d="M112.299 141.483C112.299 140.737 112.907 140.132 113.657 140.132H142.858C143.608 140.132 144.216 140.737 144.216 141.483C144.216 142.229 143.608 142.834 142.858 142.834H113.657C112.907 142.834 112.299 142.229 112.299 141.483Z" fill="white"/>
<path d="M137.652 135.178C137.652 134.432 138.26 133.827 139.01 133.827H161.646C162.396 133.827 163.004 134.432 163.004 135.178C163.004 135.924 162.396 136.529 161.646 136.529H139.01C138.26 136.529 137.652 135.924 137.652 135.178Z" fill="white"/>
<path d="M112.299 60.8663C112.299 60.1201 112.907 59.5151 113.657 59.5151H132.672C133.422 59.5151 134.03 60.1201 134.03 60.8663C134.03 61.6125 133.422 62.2174 132.672 62.2174H113.657C112.907 62.2174 112.299 61.6125 112.299 60.8663Z" fill="white"/>
<path d="M112.299 67.1714C112.299 66.4252 112.907 65.8203 113.657 65.8203H160.514C161.264 65.8203 161.872 66.4252 161.872 67.1714C161.872 67.9176 161.264 68.5225 160.514 68.5225H113.657C112.907 68.5225 112.299 67.9176 112.299 67.1714Z" fill="white"/>
<path d="M137.652 60.8663C137.652 60.1201 138.26 59.5151 139.01 59.5151H190.62C191.37 59.5151 191.978 60.1201 191.978 60.8663C191.978 61.6125 191.37 62.2174 190.62 62.2174H139.01C138.26 62.2174 137.652 61.6125 137.652 60.8663Z" fill="white"/>
<path fill-rule="evenodd" clip-rule="evenodd" d="M64.7632 73.7019H58.8778V79.5568H64.7632V73.7019ZM58.1987 73.0264V80.2323H65.4423V73.0264H58.1987Z" fill="#60A5FA"/>
<g clip-path="url(#clip0_51_37)">
<rect x="209.408" y="43.3018" width="45.2723" height="61.701" rx="20" fill="white"/>
<path d="M239.566 105.056C239.566 120.669 226.948 133.326 211.383 133.326C195.818 133.326 183.2 120.669 183.2 105.056C183.2 89.4429 195.818 76.7859 211.383 76.7859C226.948 76.7859 239.566 89.4429 239.566 105.056Z" fill="#FBBF24"/>
<path fill-rule="evenodd" clip-rule="evenodd" d="M260.969 67.3349L246.243 52.6856L231.594 67.4113L246.32 82.0606L260.969 67.3349ZM246.24 51.4084L230.317 67.4147L246.323 83.3377L262.246 67.3315L246.24 51.4084Z" fill="#BFDBFE"/>
</g>
<path d="M61.8205 87.8887L65.4423 94.1292H58.1987L61.8205 87.8887Z" fill="#93C5FD"/>
<rect x="261.924" y="43.3018" width="45.2723" height="45.4876" rx="20" fill="white"/>
<path fill-rule="evenodd" clip-rule="evenodd" d="M282.289 77.2186C286.803 77.2186 290.431 73.6123 290.431 69.2013C290.431 64.7903 286.803 61.184 282.289 61.184C277.776 61.184 274.148 64.7903 274.148 69.2013C274.148 73.6123 277.776 77.2186 282.289 77.2186ZM282.289 79.4705C288.036 79.4705 292.695 74.8728 292.695 69.2013C292.695 63.5298 288.036 58.9321 282.289 58.9321C276.543 58.9321 271.884 63.5298 271.884 69.2013C271.884 74.8728 276.543 79.4705 282.289 79.4705Z" fill="#BFDBFE"/>
<path d="M287.019 65.9508L289.975 54.8001L298.154 62.9361L287.019 65.9508Z" fill="#FBBF24"/>
<g clip-path="url(#clip1_51_37)">
<rect x="209.408" y="112.209" width="45.2723" height="68.9069" rx="20" fill="white"/>
<path fill-rule="evenodd" clip-rule="evenodd" d="M251.851 189.898C264.54 189.898 274.827 179.665 274.827 167.042C274.827 154.418 264.54 144.185 251.851 144.185C239.162 144.185 228.875 154.418 228.875 167.042C228.875 179.665 239.162 189.898 251.851 189.898ZM251.851 192.15C265.79 192.15 277.09 180.908 277.09 167.042C277.09 153.175 265.79 141.933 251.851 141.933C237.912 141.933 226.612 153.175 226.612 167.042C226.612 180.908 237.912 192.15 251.851 192.15Z" fill="#FBBF24"/>
<path d="M233.176 132.752C233.176 137.008 229.68 140.459 225.367 140.459C221.054 140.459 217.557 137.008 217.557 132.752C217.557 128.495 221.054 125.044 225.367 125.044C229.68 125.044 233.176 128.495 233.176 132.752Z" fill="#BFDBFE"/>
<path fill-rule="evenodd" clip-rule="evenodd" d="M225.367 139.783C229.31 139.783 232.497 136.63 232.497 132.752C232.497 128.873 229.31 125.72 225.367 125.72C221.424 125.72 218.236 128.873 218.236 132.752C218.236 136.63 221.424 139.783 225.367 139.783ZM225.367 140.459C229.68 140.459 233.176 137.008 233.176 132.752C233.176 128.495 229.68 125.044 225.367 125.044C221.054 125.044 217.557 128.495 217.557 132.752C217.557 137.008 221.054 140.459 225.367 140.459Z" fill="#BFDBFE"/>
</g>
<g clip-path="url(#clip2_51_37)">
<rect x="261.924" y="95.9954" width="45.2723" height="77.0136" rx="20" fill="white"/>
<path d="M317.609 151.504C317.609 157.038 313.15 161.524 307.649 161.524C302.149 161.524 297.689 157.038 297.689 151.504C297.689 145.969 302.149 141.483 307.649 141.483C313.15 141.483 317.609 145.969 317.609 151.504Z" fill="white"/>
<path fill-rule="evenodd" clip-rule="evenodd" d="M307.649 160.849C312.768 160.849 316.93 156.672 316.93 151.504C316.93 146.335 312.768 142.158 307.649 142.158C302.531 142.158 298.368 146.335 298.368 151.504C298.368 156.672 302.531 160.849 307.649 160.849ZM307.649 161.524C313.15 161.524 317.609 157.038 317.609 151.504C317.609 145.969 313.15 141.483 307.649 141.483C302.149 141.483 297.689 145.969 297.689 151.504C297.689 157.038 302.149 161.524 307.649 161.524Z" fill="#BFDBFE"/>
<path d="M299.5 123.13C299.5 130.53 293.521 136.529 286.145 136.529C278.769 136.529 272.79 130.53 272.79 123.13C272.79 115.73 278.769 109.732 286.145 109.732C293.521 109.732 299.5 115.73 299.5 123.13Z" fill="#BFDBFE"/>
<path d="M270.3 148.914L270.938 150.742L272.883 150.781L271.333 151.95L271.896 153.802L270.3 152.697L268.703 153.802L269.266 151.95L267.716 150.781L269.661 150.742L270.3 148.914Z" fill="#FBBF24"/>
<path d="M279.58 148.914L280.219 150.742L282.164 150.781L280.614 151.95L281.177 153.802L279.58 152.697L277.984 153.802L278.547 151.95L276.997 150.781L278.942 150.742L279.58 148.914Z" fill="#FBBF24"/>
<path d="M288.861 148.914L289.5 150.742L291.445 150.781L289.895 151.95L290.458 153.802L288.861 152.697L287.265 153.802L287.828 151.95L286.278 150.781L288.223 150.742L288.861 148.914Z" fill="#FBBF24"/>
<path d="M298.142 148.914L298.781 150.742L300.725 150.781L299.175 151.95L299.739 153.802L298.142 152.697L296.545 153.802L297.109 151.95L295.559 150.781L297.503 150.742L298.142 148.914Z" fill="#FBBF24"/>
<path d="M307.423 148.914L308.062 150.742L310.006 150.781L308.456 151.95L309.02 153.802L307.423 152.697L305.826 153.802L306.39 151.95L304.84 150.781L306.784 150.742L307.423 148.914Z" fill="#FBBF24"/>
</g>
<path d="M8.5 205.871C8.5 205.481 8.81802 205.164 9.21032 205.164H365.79C366.182 205.164 366.5 205.481 366.5 205.871V207.284H8.5V205.871Z" fill="#94A3B8"/>
<path d="M8.5 207.284H366.5L359.271 208.735C350.025 210.59 340.617 211.524 331.185 211.524H43.2732C32.9079 211.524 22.5738 210.396 12.4553 208.159L8.5 207.284Z" fill="#475569"/>
</g>
<defs>
<filter id="filter0_dd_51_37" x="-29.5" y="0.428711" width="434" height="274.095" filterUnits="userSpaceOnUse" color-interpolation-filters="sRGB">
<feFlood flood-opacity="0" result="BackgroundImageFix"/>
<feColorMatrix in="SourceAlpha" type="matrix" values="0 0 0 0 0 0 0 0 0 0 0 0 0 0 0 0 0 0 127 0" result="hardAlpha"/>
<feOffset/>
<feGaussianBlur stdDeviation="7.5"/>
<feComposite in2="hardAlpha" operator="out"/>
<feColorMatrix type="matrix" values="0 0 0 0 0 0 0 0 0 0 0 0 0 0 0 0 0 0 0.07 0"/>
<feBlend mode="normal" in2="BackgroundImageFix" result="effect1_dropShadow_51_37"/>
<feColorMatrix in="SourceAlpha" type="matrix" values="0 0 0 0 0 0 0 0 0 0 0 0 0 0 0 0 0 0 127 0" result="hardAlpha"/>
<feMorphology radius="12" operator="erode" in="SourceAlpha" result="effect2_dropShadow_51_37"/>
<feOffset dy="25"/>
<feGaussianBlur stdDeviation="25"/>
<feColorMatrix type="matrix" values="0 0 0 0 0 0 0 0 0 0 0 0 0 0 0 0 0 0 0.25 0"/>
<feBlend mode="normal" in2="effect1_dropShadow_51_37" result="effect2_dropShadow_51_37"/>
<feBlend mode="normal" in="SourceGraphic" in2="effect2_dropShadow_51_37" result="shape"/>
</filter>
<clipPath id="clip0_51_37">
<rect x="209.408" y="43.3018" width="45.2723" height="61.701" rx="20" fill="white"/>
</clipPath>
<clipPath id="clip1_51_37">
<rect x="209.408" y="112.209" width="45.2723" height="68.9069" rx="20" fill="white"/>
</clipPath>
<clipPath id="clip2_51_37">
<rect x="261.924" y="95.9954" width="45.2723" height="77.0136" rx="20" fill="white"/>
</clipPath>
</defs>
</svg>
